<svg xmlns="http://www.w3.org/2000/svg" width="76" height="76" viewBox="0 0 76 76" fill="none">
  <path d="M38 7.11572C30.4805 7.11555 23.2063 9.79118 17.4792 14.6638C11.7521 19.5364 7.94578 26.288 6.74141 33.7104C5.53704 41.1328 7.01321 48.7416 10.9058 55.1751C14.7983 61.6086 20.8532 66.4471 27.987 68.8246C29.5703 69.1032 30.1625 68.1532 30.1625 67.3204C30.1625 66.5699 30.1245 64.0746 30.1245 61.4241C22.1666 62.8871 20.1083 59.4829 19.475 57.7032C18.7724 55.9703 17.6584 54.4345 16.2291 53.2287C15.1208 52.6366 13.5375 51.1704 16.188 51.1324C17.2009 51.242 18.1725 51.5943 19.0203 52.1593C19.8682 52.7243 20.5673 53.4855 21.0583 54.3782C21.4913 55.1562 22.0735 55.8411 22.7717 56.3936C23.4698 56.9462 24.2701 57.3556 25.1268 57.5982C25.9834 57.8409 26.8795 57.9122 27.7637 57.808C28.648 57.7037 29.5029 57.426 30.2796 56.9907C30.4168 55.3801 31.1348 53.8742 32.3 52.7537C25.2541 51.9621 17.8916 49.2324 17.8916 37.1199C17.8468 33.9721 19.0081 30.9266 21.1375 28.6079C20.1694 25.8726 20.2827 22.8708 21.4541 20.2162C21.4541 20.2162 24.1046 19.3866 30.1625 23.4621C35.344 22.0369 40.8142 22.0369 45.9958 23.4621C52.0505 19.3454 54.7041 20.2162 54.7041 20.2162C55.8759 22.8707 55.9891 25.8726 55.0208 28.6079C57.1566 30.9226 58.319 33.9708 58.2666 37.1199C58.2666 49.2704 50.863 51.9621 43.8171 52.7537C44.5729 53.5197 45.1549 54.4393 45.5238 55.4502C45.8926 56.461 46.0395 57.5394 45.9546 58.6121C45.9546 62.8491 45.9166 66.2532 45.9166 67.3204C45.9166 68.1532 46.5088 69.1412 48.0921 68.8246C55.2127 66.4272 61.2496 61.5773 65.1251 55.1406C69.0006 48.7039 70.4625 41.0995 69.2498 33.6846C68.0372 26.2698 64.2289 19.5273 58.5048 14.6606C52.7807 9.79387 45.5133 7.11981 38 7.11572Z" fill="black"/>
</svg>