<svg width="1019" height="1047" viewBox="0 0 1019 1047" fill="white" xmlns="http://www.w3.org/2000/svg">
<path d="M329.217 849.013V767.734H364.164V849.013H329.217ZM347.136 755.26C341.79 755.26 337.236 753.379 333.474 749.617C329.778 745.855 327.93 741.367 327.93 736.153C327.93 730.939 329.778 726.418 333.474 722.59C337.236 718.762 341.79 716.848 347.136 716.848C350.634 716.848 353.835 717.739 356.739 719.521C359.643 721.237 361.986 723.547 363.768 726.451C365.55 729.355 366.441 732.589 366.441 736.153C366.441 741.367 364.527 745.855 360.699 749.617C356.937 753.379 352.416 755.26 347.136 755.26ZM442.753 765.358C448.627 765.358 454.336 766.513 459.88 768.823C465.424 771.133 469.978 774.829 473.542 779.911C477.172 784.993 478.987 791.626 478.987 799.81V849.013H443.842V805.453C443.842 800.503 442.654 796.708 440.278 794.068C437.902 791.362 434.734 790.009 430.774 790.009C428.2 790.009 425.791 790.669 423.547 791.989C421.303 793.309 419.488 795.157 418.102 797.533C416.782 799.909 416.122 802.681 416.122 805.849V849.013H381.076V767.734H416.122V778.723C416.98 776.545 418.663 774.466 421.171 772.486C423.679 770.44 426.814 768.757 430.576 767.437C434.338 766.051 438.397 765.358 442.753 765.358ZM556.792 849.013V836.836C556.132 838.09 554.647 839.905 552.337 842.281C550.027 844.591 546.958 846.703 543.13 848.617C539.368 850.465 534.946 851.389 529.864 851.389C521.812 851.389 514.849 849.409 508.975 845.449C503.101 841.489 498.547 836.242 495.313 829.708C492.145 823.174 490.561 816.079 490.561 808.423C490.561 800.767 492.145 793.672 495.313 787.138C498.547 780.604 503.101 775.357 508.975 771.397C514.849 767.371 521.812 765.358 529.864 765.358C534.682 765.358 538.873 766.084 542.437 767.536C546.067 768.988 549.037 770.704 551.347 772.684C553.723 774.664 555.406 776.545 556.396 778.327V767.734H591.244V849.013H556.792ZM524.914 808.423C524.914 811.327 525.607 814 526.993 816.442C528.379 818.818 530.26 820.699 532.636 822.085C535.012 823.471 537.718 824.164 540.754 824.164C543.79 824.164 546.463 823.471 548.773 822.085C551.149 820.699 552.997 818.818 554.317 816.442C555.703 814 556.396 811.327 556.396 808.423C556.396 805.519 555.703 802.879 554.317 800.503C552.997 798.061 551.149 796.147 548.773 794.761C546.463 793.309 543.79 792.583 540.754 792.583C537.718 792.583 535.012 793.309 532.636 794.761C530.26 796.147 528.379 798.061 526.993 800.503C525.607 802.879 524.914 805.519 524.914 808.423ZM668.79 765.358C674.664 765.358 680.373 766.513 685.917 768.823C691.461 771.133 696.015 774.829 699.579 779.911C703.209 784.993 705.024 791.626 705.024 799.81V849.013H669.879V805.453C669.879 800.503 668.691 796.708 666.315 794.068C663.939 791.362 660.771 790.009 656.811 790.009C654.237 790.009 651.828 790.669 649.584 791.989C647.34 793.309 645.525 795.157 644.139 797.533C642.819 799.909 642.159 802.681 642.159 805.849V849.013H607.113V767.734H642.159V778.723C643.017 776.545 644.7 774.466 647.208 772.486C649.716 770.44 652.851 768.757 656.613 767.437C660.375 766.051 664.434 765.358 668.79 765.358ZM766.989 824.164C770.157 824.164 772.83 823.603 775.008 822.481C777.186 821.293 778.704 820.27 779.562 819.412L795.402 842.974C794.214 843.964 792.3 845.119 789.66 846.439C787.086 847.759 783.852 848.914 779.958 849.904C776.13 850.894 771.741 851.389 766.791 851.389C756.693 851.389 747.981 849.574 740.655 845.944C733.395 842.314 727.785 837.265 723.825 830.797C719.931 824.329 717.984 816.838 717.984 808.324C717.984 799.744 719.931 792.253 723.825 785.851C727.785 779.383 733.395 774.367 740.655 770.803C747.981 767.173 756.693 765.358 766.791 765.358C771.609 765.358 775.965 765.853 779.859 766.843C783.753 767.767 787.053 768.889 789.759 770.209C792.531 771.463 794.511 772.585 795.699 773.575L779.463 797.236C779.067 796.84 778.308 796.279 777.186 795.553C776.064 794.761 774.645 794.068 772.929 793.474C771.279 792.88 769.299 792.583 766.989 792.583C764.085 792.583 761.445 793.309 759.069 794.761C756.759 796.213 754.911 798.127 753.525 800.503C752.139 802.813 751.446 805.42 751.446 808.324C751.446 811.228 752.139 813.868 753.525 816.244C754.911 818.62 756.759 820.534 759.069 821.986C761.445 823.438 764.085 824.164 766.989 824.164ZM806.041 849.013V767.734H840.988V849.013H806.041ZM823.96 755.26C818.614 755.26 814.06 753.379 810.298 749.617C806.602 745.855 804.754 741.367 804.754 736.153C804.754 730.939 806.602 726.418 810.298 722.59C814.06 718.762 818.614 716.848 823.96 716.848C827.458 716.848 830.659 717.739 833.563 719.521C836.467 721.237 838.81 723.547 840.592 726.451C842.374 729.355 843.265 732.589 843.265 736.153C843.265 741.367 841.351 745.855 837.523 749.617C833.761 753.379 829.24 755.26 823.96 755.26ZM921.854 849.013V836.836C921.194 838.09 919.709 839.905 917.399 842.281C915.089 844.591 912.02 846.703 908.192 848.617C904.43 850.465 900.008 851.389 894.926 851.389C886.874 851.389 879.911 849.409 874.037 845.449C868.163 841.489 863.609 836.242 860.375 829.708C857.207 823.174 855.623 816.079 855.623 808.423C855.623 800.767 857.207 793.672 860.375 787.138C863.609 780.604 868.163 775.357 874.037 771.397C879.911 767.371 886.874 765.358 894.926 765.358C899.744 765.358 903.935 766.084 907.499 767.536C911.129 768.988 914.099 770.704 916.409 772.684C918.785 774.664 920.468 776.545 921.458 778.327V767.734H956.306V849.013H921.854ZM889.976 808.423C889.976 811.327 890.669 814 892.055 816.442C893.441 818.818 895.322 820.699 897.698 822.085C900.074 823.471 902.78 824.164 905.816 824.164C908.852 824.164 911.525 823.471 913.835 822.085C916.211 820.699 918.059 818.818 919.379 816.442C920.765 814 921.458 811.327 921.458 808.423C921.458 805.519 920.765 802.879 919.379 800.503C918.059 798.061 916.211 796.147 913.835 794.761C911.525 793.309 908.852 792.583 905.816 792.583C902.78 792.583 900.074 793.309 897.698 794.761C895.322 796.147 893.441 798.061 892.055 800.503C890.669 802.879 889.976 805.519 889.976 808.423ZM1008.71 849.013H973.562V712.789H1008.71V849.013Z" fill="white"/>
<path d="M726.696 687.013V674.836C726.036 676.09 724.551 677.905 722.241 680.281C719.931 682.591 716.862 684.703 713.034 686.617C709.272 688.465 704.85 689.389 699.768 689.389C691.716 689.389 684.753 687.409 678.879 683.449C673.005 679.489 668.451 674.242 665.217 667.708C662.049 661.174 660.465 654.079 660.465 646.423C660.465 638.767 662.049 631.672 665.217 625.138C668.451 618.604 673.005 613.357 678.879 609.397C684.753 605.371 691.716 603.358 699.768 603.358C704.586 603.358 708.777 604.084 712.341 605.536C715.971 606.988 718.941 608.704 721.251 610.684C723.627 612.664 725.31 614.545 726.3 616.327V605.734H761.148V687.013H726.696ZM694.818 646.423C694.818 649.327 695.511 652 696.897 654.442C698.283 656.818 700.164 658.699 702.54 660.085C704.916 661.471 707.622 662.164 710.658 662.164C713.694 662.164 716.367 661.471 718.677 660.085C721.053 658.699 722.901 656.818 724.221 654.442C725.607 652 726.3 649.327 726.3 646.423C726.3 643.519 725.607 640.879 724.221 638.503C722.901 636.061 721.053 634.147 718.677 632.761C716.367 631.309 713.694 630.583 710.658 630.583C707.622 630.583 704.916 631.309 702.54 632.761C700.164 634.147 698.283 636.061 696.897 638.503C695.511 640.879 694.818 643.519 694.818 646.423ZM825.131 662.164C828.299 662.164 830.972 661.603 833.15 660.481C835.328 659.293 836.846 658.27 837.704 657.412L853.544 680.974C852.356 681.964 850.442 683.119 847.802 684.439C845.228 685.759 841.994 686.914 838.1 687.904C834.272 688.894 829.883 689.389 824.933 689.389C814.835 689.389 806.123 687.574 798.797 683.944C791.537 680.314 785.927 675.265 781.967 668.797C778.073 662.329 776.126 654.838 776.126 646.324C776.126 637.744 778.073 630.253 781.967 623.851C785.927 617.383 791.537 612.367 798.797 608.803C806.123 605.173 814.835 603.358 824.933 603.358C829.751 603.358 834.107 603.853 838.001 604.843C841.895 605.767 845.195 606.889 847.901 608.209C850.673 609.463 852.653 610.585 853.841 611.575L837.605 635.236C837.209 634.84 836.45 634.279 835.328 633.553C834.206 632.761 832.787 632.068 831.071 631.474C829.421 630.88 827.441 630.583 825.131 630.583C822.227 630.583 819.587 631.309 817.211 632.761C814.901 634.213 813.053 636.127 811.667 638.503C810.281 640.813 809.588 643.42 809.588 646.324C809.588 649.228 810.281 651.868 811.667 654.244C813.053 656.62 814.901 658.534 817.211 659.986C819.587 661.438 822.227 662.164 825.131 662.164ZM856.174 605.734H869.242V572.371H903.892V605.734H921.118V634.345H903.892V650.185C903.892 653.023 904.255 655.465 904.981 657.511C905.773 659.491 907.423 660.481 909.931 660.481C911.449 660.481 912.802 660.151 913.99 659.491C915.178 658.765 915.904 658.27 916.168 658.006L927.85 682.756C927.322 683.152 925.705 683.911 922.999 685.033C920.359 686.089 916.993 687.079 912.901 688.003C908.875 688.927 904.387 689.389 899.437 689.389C890.659 689.389 883.432 686.98 877.756 682.162C872.08 677.278 869.242 669.787 869.242 659.689V634.345H856.174V605.734ZM976.355 603.358C982.031 603.358 987.212 603.82 991.898 604.744C996.65 605.668 1000.58 606.691 1003.68 607.813C1006.85 608.869 1008.83 609.694 1009.62 610.288L998.63 630.682C997.442 629.824 995.132 628.702 991.7 627.316C988.334 625.864 984.605 625.138 980.513 625.138C977.807 625.138 975.563 625.468 973.781 626.128C972.065 626.722 971.207 627.778 971.207 629.296C971.207 630.748 972.23 631.969 974.276 632.959C976.322 633.883 979.424 634.708 983.582 635.434C987.344 636.16 991.304 637.381 995.462 639.097C999.62 640.747 1003.12 643.288 1005.96 646.72C1008.86 650.086 1010.31 654.607 1010.31 660.283C1010.31 666.355 1008.99 671.305 1006.35 675.133C1003.71 678.895 1000.25 681.832 995.957 683.944C991.733 685.99 987.146 687.409 982.196 688.201C977.312 688.993 972.626 689.389 968.138 689.389C961.538 689.389 955.829 688.795 951.011 687.607C946.193 686.485 942.332 685.198 939.428 683.746C936.59 682.294 934.643 681.172 933.587 680.38L944.378 657.709C946.094 659.095 948.866 660.679 952.694 662.461C956.588 664.243 960.614 665.134 964.772 665.134C968.468 665.134 971.24 664.738 973.088 663.946C975.002 663.088 975.959 661.933 975.959 660.481C975.959 659.359 975.497 658.435 974.573 657.709C973.649 656.983 972.296 656.323 970.514 655.729C968.732 655.135 966.488 654.574 963.782 654.046C961.34 653.584 958.634 652.825 955.664 651.769C952.694 650.647 949.856 649.096 947.15 647.116C944.51 645.136 942.299 642.628 940.517 639.592C938.801 636.49 937.943 632.728 937.943 628.306C937.943 622.63 939.791 617.977 943.487 614.347C947.183 610.651 951.935 607.912 957.743 606.13C963.617 604.282 969.821 603.358 976.355 603.358Z" fill="white"/>
<path d="M170.416 388.333H466.624V501.655H300.568V577.951H453.534V691.273H300.568V882.013H170.416V388.333Z" fill="white"/>
<path d="M506.416 226.333H802.624V339.655H636.568V415.951H789.534V529.273H636.568V720.013H506.416V226.333Z" fill="white"/>
<path d="M171.41 887.513V881.013L299.56 881.513V887.513H171.41Z" fill="white" stroke="white" stroke-width="2"/>
<path d="M507.41 725.513V719.013L635.56 719.513V725.513H507.41Z" fill="white" stroke="white" stroke-width="2"/>
<path d="M27.0001 445.802L299.611 198.013" stroke="white" stroke-width="38" stroke-linecap="square"/>
<path d="M385.436 277.983L651.856 26.9998" stroke="white" stroke-width="38" stroke-linecap="square"/>
<path d="M301 196.013L382.364 279.752" stroke="white" stroke-width="38" stroke-linecap="square"/>
</svg>
