<svg xmlns="http://www.w3.org/2000/svg" width="46" height="45" viewBox="0 0 46 45" fill="none">
  <path d="M29.5625 26.25H28.0813L27.5563 25.7438C29.4573 23.5388 30.5021 20.7238 30.5 17.8125C30.5 15.402 29.7852 13.0457 28.446 11.0415C27.1069 9.03727 25.2034 7.47517 22.9765 6.55272C20.7495 5.63028 18.299 5.38893 15.9348 5.85918C13.5707 6.32944 11.3991 7.49019 9.69464 9.19464C7.99019 10.8991 6.82944 13.0707 6.35918 15.4348C5.88893 17.799 6.13028 20.2495 7.05272 22.4765C7.97517 24.7034 9.53727 26.6069 11.5415 27.946C13.5457 29.2852 15.902 30 18.3125 30C21.3313 30 24.1063 28.8938 26.2438 27.0563L26.75 27.5813V29.0625L36.125 38.4188L38.9188 35.625L29.5625 26.25ZM18.3125 26.25C13.6438 26.25 9.87501 22.4813 9.87501 17.8125C9.87501 13.1438 13.6438 9.37501 18.3125 9.37501C22.9813 9.37501 26.75 13.1438 26.75 17.8125C26.75 22.4813 22.9813 26.25 18.3125 26.25Z" fill="#F5F5F5"/>
</svg>